<?xml version="1.0" encoding="UTF-8"?>
<svg width="1200pt" height="1200pt" version="1.1" viewBox="0 0 1200 1200" xmlns="http://www.w3.org/2000/svg">
 <g fill="#009939">
  <path d="m601.2 248.4-114 684c-4.8008 31.199 15.602 60 46.801 66 3.6016 0 6 1.1992 9.6016 1.1992 27.602 0 51.602-19.199 56.398-48l114-684c4.8008-31.199-15.602-60-46.801-66-32.398-4.7969-61.199 15.602-66 46.801z"/>
  <path d="m806.4 428.4 192 171.6-208.8 184.8c-24 20.398-25.199 56.398-4.8008 80.398 10.801 13.199 26.398 19.199 42 19.199 13.199 0 27.602-4.8008 38.398-14.398l304.8-270-288-256.8c-24-20.398-60-19.199-80.398 4.8008-21.602 24-19.203 60 4.7969 80.398z"/>
  <path d="m356.4 871.2c15.602 0 31.199-6 42-19.199 20.398-24 19.199-60-4.8008-80.398l-192-171.6 208.8-184.8c24-20.398 25.199-56.398 4.8008-80.398s-56.398-25.199-80.398-4.8008l-304.8 270 288 256.8c10.801 9.5977 25.199 14.398 38.398 14.398z"/>
 </g>
</svg>
